<svg width="27" height="27" viewBox="0 0 27 27" fill="none" xmlns="http://www.w3.org/2000/svg">
<g clip-path="url(#clip0_139_2450)">
<path d="M4.5 24.75C4.5 22.3631 5.44821 20.0739 7.13604 18.386C8.82387 16.6982 11.1131 15.75 13.5 15.75C15.8869 15.75 18.1761 16.6982 19.864 18.386C21.5518 20.0739 22.5 22.3631 22.5 24.75H20.25C20.25 22.9598 19.5388 21.2429 18.273 19.977C17.0071 18.7112 15.2902 18 13.5 18C11.7098 18 9.9929 18.7112 8.72703 19.977C7.46116 21.2429 6.75 22.9598 6.75 24.75H4.5ZM13.5 14.625C9.77062 14.625 6.75 11.6044 6.75 7.875C6.75 4.14562 9.77062 1.125 13.5 1.125C17.2294 1.125 20.25 4.14562 20.25 7.875C20.25 11.6044 17.2294 14.625 13.5 14.625ZM13.5 12.375C15.9863 12.375 18 10.3613 18 7.875C18 5.38875 15.9863 3.375 13.5 3.375C11.0137 3.375 9 5.38875 9 7.875C9 10.3613 11.0137 12.375 13.5 12.375Z" fill="#FF8066"/>
</g>
<defs>
<clipPath id="clip0_139_2450">
<rect width="27" height="27" fill="white"/>
</clipPath>
</defs>
</svg>
