<svg width="28" height="24" viewBox="0 0 28 24" fill="none" xmlns="http://www.w3.org/2000/svg">
<path d="M17.3756 2.66667L24.8889 9.10667V21.3333H3.11111V2.66667H17.3756ZM17.3756 0H3.11111C1.4 0 0 1.2 0 2.66667V21.3333C0 22.8 1.4 24 3.11111 24H24.8889C26.6 24 28 22.8 28 21.3333V9.10667C28 8.4 27.6733 7.72 27.0822 7.22667L19.5689 0.786667C18.9933 0.28 18.2 0 17.3756 0ZM6.22222 16H21.7778V18.6667H6.22222V16ZM6.22222 10.6667H21.7778V13.3333H6.22222V10.6667ZM6.22222 5.33333H17.1111V8H6.22222V5.33333Z" fill="#FF8066"/>
</svg>
